<svg width="8" height="10" viewBox="0 0 8 10" fill="none" xmlns="http://www.w3.org/2000/svg">
<path d="M1.55292 0.174642L7.58389 4.23457C7.7125 4.32117 7.8174 4.43587 7.88981 4.56906C7.96221 4.70225 8 4.85003 8 5C8 5.14997 7.96221 5.29775 7.88981 5.43094C7.8174 5.56413 7.7125 5.67883 7.58389 5.76542L1.55292 9.82536C1.4063 9.92619 1.23296 9.98593 1.05252 9.9978C0.872084 10.0097 0.691758 9.97322 0.531963 9.89255C0.370519 9.81491 0.235129 9.69579 0.141122 9.54868C0.0471141 9.40156 -0.00175478 9.23232 4.80996e-05 9.06013L4.77446e-05 0.939871C-0.00175515 0.767674 0.0471137 0.598437 0.141121 0.451322C0.235129 0.304206 0.370519 0.185087 0.531963 0.107454C0.691758 0.0267839 0.872084 -0.00967888 1.05252 0.00219531C1.23296 0.0140695 1.4063 0.0738057 1.55292 0.174642Z" fill="#323232"/>
</svg>
