<svg width="16" height="16" viewBox="0 0 16 16" fill="none" xmlns="http://www.w3.org/2000/svg">
<rect opacity="0.1" width="16" height="16" fill="white"/>
<path d="M12.8254 5.55292L8.76542 11.5839C8.67883 11.7125 8.56413 11.8174 8.43094 11.8898C8.29775 11.9622 8.14997 12 8 12C7.85003 12 7.70225 11.9622 7.56906 11.8898C7.43587 11.8174 7.32117 11.7125 7.23458 11.5839L3.17464 5.55292C3.07381 5.4063 3.01407 5.23296 3.0022 5.05252C2.99032 4.87208 3.02678 4.69176 3.10745 4.53196C3.18509 4.37052 3.30421 4.23513 3.45132 4.14112C3.59844 4.04711 3.76768 3.99825 3.93987 4.00005H12.0601C12.2323 3.99825 12.4016 4.04711 12.5487 4.14112C12.6958 4.23513 12.8149 4.37052 12.8925 4.53196C12.9732 4.69176 13.0097 4.87208 12.9978 5.05252C12.9859 5.23296 12.9262 5.4063 12.8254 5.55292Z" fill="#323232"/>
</svg>
