<svg width="24" height="24" viewBox="0 0 24 24" fill="none" xmlns="http://www.w3.org/2000/svg">
<g clip-path="url(#clip0_25_466)">
<path d="M11.999 14.0735C13.9924 14.0735 15.6084 15.6895 15.6084 17.6829C15.6083 19.6761 13.9923 21.2922 11.999 21.2922C10.0058 21.2921 8.38979 19.6761 8.38965 17.6829C8.38965 15.6896 10.0057 14.0736 11.999 14.0735ZM12 2.4563C17.5163 2.4563 22 6.94002 22 12.4563C22 15.0889 20.9859 17.5821 19.1348 19.4612C19.0045 19.6006 18.8183 19.6653 18.6416 19.6653C18.4649 19.6652 18.2879 19.6001 18.1484 19.47C17.8698 19.2002 17.8701 18.7636 18.1396 18.4846C19.7303 16.866 20.6045 14.7261 20.6045 12.4563C20.6045 7.71211 16.7442 3.85181 12 3.85181C7.25581 3.85181 3.39551 7.71211 3.39551 12.4563C3.39551 14.7168 4.2604 16.8475 5.8418 18.4661C6.11125 18.745 6.10238 19.1817 5.83301 19.4514C5.55402 19.7211 5.11647 19.7122 4.84668 19.4426C3.01412 17.5636 2 15.0796 2 12.4563C2 6.94002 6.48372 2.4563 12 2.4563ZM15.7207 8.7356C16.744 8.7356 17.5811 9.57269 17.5811 10.5959C17.581 11.6192 16.7439 12.4563 15.7207 12.4563H15.0234C14.3816 12.4563 13.8604 11.9351 13.8604 11.2932V10.5959C13.8604 9.57273 14.6975 8.73566 15.7207 8.7356Z" fill="#777777"/>
</g>
<defs>
<clipPath id="clip0_25_466">
<rect width="24" height="24" fill="white"/>
</clipPath>
</defs>
</svg>
