<svg width="24" height="24" viewBox="0 0 24 24" fill="none" xmlns="http://www.w3.org/2000/svg">
<g clip-path="url(#clip0_25_523)">
<path d="M16.8126 5.40381C16.8127 4.88947 17.3641 4.56831 17.8233 4.80713C19.1182 5.49611 20 6.86453 20.0001 8.43506V17.0796C19.9999 19.3392 18.1533 21.1851 15.8936 21.1851H8.10457C5.84495 21.1851 3.99831 19.3392 3.99812 17.0796V8.43506C3.99821 6.8645 4.87992 5.4961 6.17488 4.80713C6.63414 4.56831 7.18554 4.88947 7.18562 5.40381C7.18562 6.86422 8.37956 8.05884 9.83992 8.05908H14.1573C15.6179 8.05908 16.8126 6.86437 16.8126 5.40381ZM8.3243 15.1685C7.94785 15.1687 7.63582 15.4814 7.63582 15.8579C7.63604 16.2342 7.94798 16.5462 8.3243 16.5464H12.3477C12.7242 16.5464 13.037 16.2344 13.0372 15.8579C13.0372 15.4813 12.7244 15.1685 12.3477 15.1685H8.3243ZM8.3243 11.4946C7.94786 11.4948 7.63584 11.8066 7.63582 12.1831C7.63582 12.5596 7.94785 12.8723 8.3243 12.8726H14.755C15.1315 12.8725 15.4434 12.5597 15.4434 12.1831C15.4434 11.8065 15.1315 11.4947 14.755 11.4946H8.3243ZM14.1583 2.81396C15.1135 2.81396 15.8948 3.58537 15.8858 4.54053V5.40479C15.8856 6.35994 15.1135 7.13135 14.1583 7.13135H9.83211C8.8769 7.13135 8.10478 6.35994 8.10457 5.40479V4.54053C8.10478 3.58541 8.88575 2.81403 9.8409 2.81396H14.1583Z" fill="#777777"/>
</g>
<defs>
<clipPath id="clip0_25_523">
<rect width="24" height="24" fill="white"/>
</clipPath>
</defs>
</svg>
