<svg width="24" height="24" viewBox="0 0 24 24" fill="none" xmlns="http://www.w3.org/2000/svg">
<g clip-path="url(#clip0_25_575)">
<path d="M11.9542 3C16.9656 3 21.0458 7.07953 21.046 12.0908V17.5537C21.0459 19.4531 19.4991 20.9998 17.5997 21H17.4816C15.5821 20.9999 14.0354 19.4532 14.0353 17.5537V15.8525C14.0355 13.9531 15.5821 12.4063 17.4816 12.4062H17.5997C18.3841 12.4063 19.1086 12.6698 19.6886 13.1133V12.0908C19.6884 7.83034 16.2238 4.35645 11.9542 4.35645C9.86475 4.35652 7.9286 5.1616 6.49037 6.62695C5.04312 8.10134 4.27461 10.0646 4.31068 12.1631V13.1143C4.89089 12.6704 5.61564 12.4062 6.40052 12.4062H6.51771C8.41725 12.4062 9.9648 13.953 9.96498 15.8525V17.5537C9.96486 19.4533 8.41728 21 6.51771 21H6.40052C4.50095 21 2.95435 19.4533 2.95423 17.5537V12.1816C2.90901 9.73029 3.82208 7.41453 5.52259 5.67773C7.22316 3.95003 9.50289 3.00007 11.9542 3Z" fill="#777777"/>
</g>
<defs>
<clipPath id="clip0_25_575">
<rect width="24" height="24" fill="white"/>
</clipPath>
</defs>
</svg>
