<svg width="24" height="24" viewBox="0 0 24 24" fill="none" xmlns="http://www.w3.org/2000/svg">
<g clip-path="url(#clip0_25_512)">
<path d="M8.40039 17.4004C9.39432 17.4006 10.2002 18.2062 10.2002 19.2002C10.2001 20.1941 9.39426 20.9998 8.40039 21C7.40634 21 6.59972 20.1942 6.59961 19.2002C6.59961 18.2061 7.40628 17.4004 8.40039 17.4004ZM15.5996 17.4004C16.5937 17.4004 17.4004 18.2061 17.4004 19.2002C17.4003 20.1942 16.5937 21 15.5996 21C14.6057 20.9998 13.7999 20.1941 13.7998 19.2002C13.7998 18.2062 14.6057 17.4006 15.5996 17.4004ZM16.3564 5.7002C17.0043 5.70036 17.5979 6.0515 17.9219 6.60938L18.498 7.61719C18.5789 7.76117 18.4707 7.9502 18.2998 7.9502C17.0579 7.9503 16.0498 8.95826 16.0498 10.2002V12.9004C16.05 14.1421 17.058 15.1503 18.2998 15.1504H20.5498C20.8017 15.1504 20.9998 15.3478 21 15.5996V16.5C21 17.994 19.7938 19.2002 18.2998 19.2002C18.2998 17.7152 17.0846 16.5 15.5996 16.5C14.1148 16.5002 12.9004 17.7153 12.9004 19.2002H11.0996C11.0996 17.7153 9.88521 16.5002 8.40039 16.5C6.91539 16.5 5.7002 17.7152 5.7002 19.2002C4.2062 19.2002 3 17.994 3 16.5V14.7002C3 14.2052 3.40539 13.7998 3.90039 13.7998H12.4502C13.6921 13.7997 14.7002 12.7917 14.7002 11.5498V6.59961C14.7004 6.10492 15.1049 5.70041 15.5996 5.7002H16.3564ZM20.7656 11.5859C20.9186 11.8558 20.9999 12.1617 21 12.4766V13.7998H18.2998C17.805 13.7997 17.4006 13.3951 17.4004 12.9004V10.2002C17.4004 9.70526 17.8049 9.29991 18.2998 9.2998H19.4609L20.7656 11.5859ZM12.9629 3C13.4309 3 13.7998 3.36912 13.7998 3.82812V11.3066C13.7998 12.2246 13.0528 12.9717 12.1348 12.9717H3.90039C3.40548 12.9717 3.00014 12.5671 3 12.0723V6.32129C3 4.48529 4.48529 3 6.32129 3H12.9629Z" fill="white"/>
</g>
<defs>
<clipPath id="clip0_25_512">
<rect width="24" height="24" fill="white"/>
</clipPath>
</defs>
</svg>
