<svg width="24" height="24" viewBox="0 0 24 24" fill="none" xmlns="http://www.w3.org/2000/svg">
<g clip-path="url(#clip0_25_502)">
<path d="M7.71527 13.2866C9.67739 13.2866 10.7125 14.3223 10.7036 16.2935V18.0034C10.7034 19.9653 9.66849 21.0005 7.70648 21.0005H5.99652C4.03448 21.0005 2.99945 19.9647 2.99945 17.9937V16.2837C2.99956 14.3219 4.03451 13.2867 6.00531 13.2866H7.71527ZM18.0024 13.2866C19.9644 13.2866 21.0003 14.3218 21.0004 16.2837V17.9937C21.0004 19.9558 19.9645 20.9917 18.0024 20.9917H16.2924C14.3305 20.9916 13.2954 19.9557 13.2954 17.9937V16.2837C13.2955 14.3219 14.3306 13.2867 16.2924 13.2866H18.0024ZM7.71527 2.99951C9.67735 2.99951 10.7125 4.03453 10.7036 5.99658V7.70654C10.7036 9.66866 9.6686 10.7036 7.70648 10.7036H5.99652C4.03448 10.7036 2.99945 9.66862 2.99945 7.70654V5.99658C2.99949 4.03464 4.03444 2.99962 6.00531 2.99951H7.71527ZM18.0024 2.99951C19.9645 2.99951 21.0004 4.03454 21.0004 5.99658V7.70654C21.0004 9.66866 19.9645 10.7036 18.0024 10.7036H16.2924C14.3305 10.7035 13.2954 9.66855 13.2954 7.70654V5.99658C13.2954 4.03464 14.3305 2.99962 16.2924 2.99951H18.0024Z" fill="#777777"/>
</g>
<defs>
<clipPath id="clip0_25_502">
<rect width="24" height="24" fill="white"/>
</clipPath>
</defs>
</svg>
