<svg width="24" height="24" viewBox="0 0 24 24" fill="none" xmlns="http://www.w3.org/2000/svg">
<g clip-path="url(#clip0_25_477)">
<path d="M21.5756 15.6V16.5C21.5756 17.994 20.3696 19.2 18.8756 19.2C18.8756 17.715 17.6606 16.5 16.1756 16.5C14.6906 16.5 13.4756 17.715 13.4756 19.2H11.6756C11.6756 17.715 10.4606 16.5 8.97558 16.5C7.49058 16.5 6.27558 17.715 6.27558 19.2C4.78158 19.2 3.57558 17.994 3.57558 16.5V14.7C3.57558 14.205 3.98058 13.8 4.47558 13.8H13.0256C14.2676 13.8 15.2756 12.792 15.2756 11.55V6.59995C15.2756 6.10495 15.6806 5.69995 16.1756 5.69995H16.9316C17.5796 5.69995 18.1736 6.05095 18.4976 6.60895L19.0736 7.61695C19.1546 7.76095 19.0466 7.94995 18.8756 7.94995C17.6336 7.94995 16.6256 8.95795 16.6256 10.2V12.9C16.6256 14.142 17.6336 15.15 18.8756 15.15H21.1256C21.3776 15.15 21.5756 15.348 21.5756 15.6Z" fill="#777777"/>
<path fill-rule="evenodd" clip-rule="evenodd" d="M8.97558 20.9999C7.98147 20.9999 7.17558 20.194 7.17558 19.1999C7.17558 18.2058 7.98147 17.3999 8.97558 17.3999C9.9697 17.3999 10.7756 18.2058 10.7756 19.1999C10.7756 20.194 9.9697 20.9999 8.97558 20.9999Z" fill="#777777"/>
<path fill-rule="evenodd" clip-rule="evenodd" d="M16.1756 20.9999C15.1815 20.9999 14.3756 20.194 14.3756 19.1999C14.3756 18.2058 15.1815 17.3999 16.1756 17.3999C17.1697 17.3999 17.9756 18.2058 17.9756 19.1999C17.9756 20.194 17.1697 20.9999 16.1756 20.9999Z" fill="#777777"/>
<path d="M21.5756 13.8H18.8756C18.3806 13.8 17.9756 13.395 17.9756 12.9V10.2C17.9756 9.70505 18.3806 9.30005 18.8756 9.30005H20.0366L21.3416 11.586C21.4946 11.856 21.5756 12.162 21.5756 12.477V13.8Z" fill="#777777"/>
<path d="M6.8962 3C5.2852 3 3.9352 4.152 3.6382 5.682H7.5712C7.9132 5.682 8.1832 5.961 8.1832 6.303C8.1832 6.645 7.9132 6.915 7.5712 6.915H3.5752V8.157H5.9152C6.2572 8.157 6.5362 8.436 6.5362 8.778C6.5362 9.12 6.2572 9.39 5.9152 9.39H3.5752V10.632H4.2682C4.6102 10.632 4.8892 10.911 4.8892 11.253C4.8892 11.595 4.6102 11.865 4.2682 11.865H3.5752V12.072C3.5752 12.567 3.9802 12.972 4.4752 12.972H12.7102C13.6282 12.972 14.3752 12.225 14.3752 11.307V3.828C14.3752 3.369 14.0062 3 13.5472 3H6.8962Z" fill="#777777"/>
<path d="M3.50319 5.68237H2.62119C2.27919 5.68237 2.00019 5.96137 2.00019 6.30337C2.00019 6.64537 2.27919 6.91537 2.62119 6.91537H3.44019H3.57519V6.32137C3.57519 6.10537 3.60219 5.88937 3.63819 5.68237H3.50319Z" fill="#777777"/>
<path d="M2.62119 8.15747C2.27919 8.15747 2.00019 8.43647 2.00019 8.77847C2.00019 9.12047 2.27919 9.39047 2.62119 9.39047H3.44019H3.57519V8.15747H3.44019H2.62119Z" fill="#777777"/>
<path d="M2.62119 10.6323C2.27919 10.6323 2.00019 10.9113 2.00019 11.2533C2.00019 11.5953 2.27919 11.8653 2.62119 11.8653H3.44019H3.57519V10.6323H3.44019H2.62119Z" fill="#777777"/>
</g>
<defs>
<clipPath id="clip0_25_477">
<rect width="24" height="24" fill="white"/>
</clipPath>
</defs>
</svg>
