<svg width="16" height="16" viewBox="0 0 16 16" fill="none" xmlns="http://www.w3.org/2000/svg">
<g clip-path="url(#clip0_25_595)">
<path d="M3.17464 10.4471L7.23458 4.41611C7.32117 4.2875 7.43587 4.1826 7.56906 4.11019C7.70225 4.03779 7.85003 4 8 4C8.14997 4 8.29775 4.03779 8.43094 4.11019C8.56413 4.1826 8.67883 4.2875 8.76542 4.41611L12.8254 10.4471C12.9262 10.5937 12.9859 10.767 12.9978 10.9475C13.0097 11.1279 12.9732 11.3082 12.8925 11.468C12.8149 11.6295 12.6958 11.7649 12.5487 11.8589C12.4016 11.9529 12.2323 12.0018 12.0601 12L3.93987 12C3.76767 12.0018 3.59844 11.9529 3.45132 11.8589C3.30421 11.7649 3.18509 11.6295 3.10745 11.468C3.02678 11.3082 2.99032 11.1279 3.0022 10.9475C3.01407 10.767 3.07381 10.5937 3.17464 10.4471Z" fill="#BABABA"/>
</g>
<defs>
<clipPath id="clip0_25_595">
<rect width="16" height="16" fill="white"/>
</clipPath>
</defs>
</svg>
