<svg width="24" height="24" viewBox="0 0 24 24" fill="none" xmlns="http://www.w3.org/2000/svg">
<g clip-path="url(#clip0_25_492)">
<path d="M3.20421 10.1716C3.20421 9.46038 3.95136 9.00998 4.56358 9.36108L11.0372 13.115C11.3073 13.286 11.4874 13.5924 11.4874 13.9255V20.0662C11.4872 20.7503 10.7939 21.2001 10.1817 20.9031C8.9453 20.2969 7.28595 19.4261 5.20323 18.2917C4.10488 17.6706 3.2043 16.1046 3.20421 14.8171V10.1716ZM19.4366 9.36108C20.0489 9.00995 20.797 9.46037 20.797 10.1716V14.8171C20.7969 16.1045 19.8962 17.6704 18.798 18.2917C16.7154 19.426 15.0559 20.2969 13.8194 20.9031C13.2073 21.2001 12.514 20.7503 12.5138 20.0662V13.9255C12.5138 13.5924 12.6939 13.286 12.964 13.115L19.4366 9.36108ZM10.1163 3.43921C11.1607 2.85399 12.8542 2.85399 13.8985 3.43921L18.7775 6.14038C19.0926 6.31144 19.3904 6.56321 19.6515 6.85132C20.0115 7.27448 19.8849 7.94996 19.3898 8.23804L12.4571 12.2537C12.1782 12.4154 11.8271 12.4156 11.5392 12.2537L4.60655 8.23804C4.11142 7.94996 3.9854 7.27448 4.36339 6.85132C4.62434 6.55438 4.92152 6.31143 5.23643 6.14038L10.1163 3.43921Z" fill="#777777"/>
</g>
<defs>
<clipPath id="clip0_25_492">
<rect width="24" height="24" fill="white"/>
</clipPath>
</defs>
</svg>
