<svg width="24" height="24" viewBox="0 0 24 24" fill="none" xmlns="http://www.w3.org/2000/svg">
<g clip-path="url(#clip0_25_553)">
<path d="M4.50686 3C6.31933 3.15425 8.99064 4.00259 10.7549 4.95703C11.0729 5.1306 11.2656 5.4492 11.2656 5.81543V19.2256C11.2656 19.91 10.571 20.3824 9.94436 20.1221C8.15135 19.3702 5.92477 18.7141 4.34377 18.502L4.04495 18.4639C3.10979 18.3482 2.34768 17.4898 2.34768 16.5547V5.0918C2.34782 3.93511 3.28279 3.00014 4.43948 3H4.50686ZM19.5489 3C20.7055 3.00017 21.6405 3.93512 21.6406 5.0918V16.5547C21.6406 17.4898 20.8785 18.3482 19.9434 18.4639L19.6446 18.502C18.0636 18.7141 15.837 19.3702 14.044 20.1221C13.4173 20.3824 12.7227 19.91 12.7227 19.2256V5.81543C12.7227 5.45879 12.9251 5.13059 13.2432 4.95703C15.0073 4.00267 17.6778 3.15435 19.4903 3H19.5489ZM5.25002 10.7705C4.85488 10.7705 4.52661 11.0981 4.52639 11.4932C4.52639 11.8981 4.85475 12.2168 5.25002 12.2168H8.14163C8.5369 12.2168 8.86526 11.8981 8.86526 11.4932C8.86504 11.0981 8.53677 10.7705 8.14163 10.7705H5.25002ZM5.25002 7.87793C4.85475 7.87793 4.52639 8.20629 4.52639 8.60156C4.52653 9.00636 4.85483 9.32422 5.25002 9.32422H7.41897C7.81406 9.3241 8.14149 9.00628 8.14163 8.60156C8.14163 8.20636 7.81414 7.87805 7.41897 7.87793H5.25002Z" fill="#777777"/>
</g>
<defs>
<clipPath id="clip0_25_553">
<rect width="24" height="24" fill="white"/>
</clipPath>
</defs>
</svg>
