<svg width="24" height="24" viewBox="0 0 24 24" fill="none" xmlns="http://www.w3.org/2000/svg">
<path d="M3.87096 15.484H3.09672C2.02779 15.484 1.16125 14.6174 1.16125 13.5485C1.16125 12.9071 1.68119 12.3872 2.32254 12.3872H3.87091L3.87096 15.484Z" fill="#BD4150"/>
<path d="M18.5807 0H4.25809L3.85938 0.774188V23.625H22.0645L22.8387 23.2258V4.25808L18.5807 0Z" fill="#ECEAEC"/>
<path d="M4.25807 22.0645V0C3.83053 0 3.48389 0.346594 3.48389 0.774188V23.2258C3.48389 23.6534 3.83053 24 4.25807 24H22.0645C22.4921 24 22.8387 23.6534 22.8387 23.2258H5.41936C4.77796 23.2258 4.25807 22.7059 4.25807 22.0645ZM22.8387 4.19161C22.8387 3.9863 22.7572 3.78937 22.6119 3.64416L19.1944 0.226734C19.0492 0.08156 18.8523 1.87938e-06 18.647 0L18.5806 0V3.87098C18.5806 3.97365 18.6214 4.07211 18.694 4.1447C18.7666 4.2173 18.8651 4.25808 18.9677 4.25808H22.8387V4.19161Z" fill="#DAD8DB"/>
<path d="M14.3226 14.7097H2.32258C2.18683 14.7097 2.05647 14.6864 1.93534 14.6436L1.5625 15.2656V20.1562C1.5625 20.7976 2.08244 21.3175 2.72378 21.3175H14.3226L15.0968 20.9032V15.4839C15.0968 15.0563 14.7502 14.7097 14.3226 14.7097Z" fill="#E15F78"/>
<path d="M1.93544 14.6435C1.48544 14.4835 1.16125 14.0533 1.16125 13.5483V20.5161C1.16125 21.1574 1.68119 21.6774 2.32254 21.6774H14.3225C14.7501 21.6774 15.0967 21.3307 15.0967 20.9032H3.09672C2.45538 20.9032 1.93544 20.3832 1.93544 19.7419V14.6435Z" fill="#DB4655"/>
<path d="M12.2087 17.7776H11.4489V17.0438H12.3078C12.5217 17.0438 12.6949 16.8705 12.6949 16.6567C12.6949 16.443 12.5217 16.2696 12.3078 16.2696H11.0618C11.0109 16.2696 10.9606 16.2796 10.9136 16.2991C10.8667 16.3185 10.824 16.347 10.788 16.383C10.7521 16.4189 10.7236 16.4616 10.7041 16.5086C10.6847 16.5556 10.6747 16.6059 10.6747 16.6567V19.7308C10.6747 19.9446 10.8478 20.1179 11.0618 20.1179C11.2757 20.1179 11.4489 19.9446 11.4489 19.7308V18.5518H12.2087C12.4227 18.5518 12.5958 18.3785 12.5958 18.1647C12.5958 17.951 12.4227 17.7776 12.2087 17.7776ZM5.10903 16.2583H4.24676C4.19584 16.2583 4.14542 16.2684 4.0984 16.2879C4.05137 16.3074 4.00865 16.336 3.97268 16.3721C3.90045 16.4447 3.85991 16.543 3.8599 16.6454H3.85962V19.7422C3.85962 19.9559 4.03278 20.1293 4.24671 20.1293C4.46065 20.1293 4.63381 19.9559 4.63381 19.7422V18.7821C4.80748 18.7812 4.9984 18.7803 5.10898 18.7803C5.8136 18.7803 6.38707 18.2146 6.38707 17.5194C6.38712 16.824 5.81365 16.2583 5.10903 16.2583ZM5.10903 18.0061C4.9519 18.0063 4.79477 18.0068 4.63765 18.0078C4.6369 17.8292 4.63503 17.0325 4.63503 17.0325H5.10907C5.3824 17.0325 5.61298 17.2555 5.61298 17.5194C5.61298 17.7832 5.38235 18.0061 5.10903 18.0061ZM8.35512 16.3041H7.5042C7.45329 16.304 7.40288 16.3141 7.35585 16.3335C7.30882 16.353 7.26609 16.3816 7.23012 16.4176C7.19415 16.4537 7.16565 16.4964 7.14625 16.5435C7.12686 16.5906 7.11695 16.641 7.1171 16.6919L7.11935 18.1904C7.11935 18.6083 7.12315 19.6978 7.12315 19.6978C7.12335 19.7486 7.13357 19.799 7.15323 19.8459C7.17288 19.8928 7.20159 19.9354 7.23771 19.9713C7.3102 20.0432 7.40818 20.0835 7.51029 20.0835H7.51179C7.51179 20.0835 8.14273 20.0811 8.3869 20.0769C9.29604 20.0608 9.95609 19.2689 9.95609 18.1938C9.95604 17.0635 9.31264 16.3041 8.35512 16.3041ZM8.37326 19.3027C8.2625 19.3046 8.07082 19.3063 7.89621 19.3072C7.89509 18.9529 7.89359 18.4459 7.89359 18.1903L7.89209 17.0782H8.35517C9.1422 17.0782 9.1819 18.0074 9.1819 18.1937C9.18185 18.7387 8.93196 19.2929 8.37326 19.3027Z" fill="white"/>
<path d="M9.2782 13.0951C8.97956 13.0951 8.70965 12.9397 8.5199 12.6465C8.2379 12.2114 8.31201 11.7187 8.72292 11.2945C9.13724 10.8666 9.98512 10.464 11.0054 10.1353C11.3237 9.5354 11.6477 8.83322 11.9505 8.05692C12.1293 7.5982 12.2737 7.18462 12.3894 6.81473C11.8794 5.87986 11.5762 5.00948 11.6568 4.44431C11.7388 3.87084 12.1671 3.54801 12.8037 3.58317C12.9927 3.59339 13.4437 3.69206 13.5526 4.38647C13.6357 4.91742 13.4959 5.7757 13.2154 6.75103C13.7461 7.64639 14.4738 8.6054 15.1856 9.34143C16.2615 9.27586 17.1733 9.35428 17.6318 9.63098C17.9909 9.84759 18.1319 10.2008 18.009 10.5757C17.8079 11.1883 17.3222 11.4689 16.7083 11.3258C16.1915 11.2052 15.5511 10.7541 14.9017 10.1277C13.8572 10.2196 12.6279 10.4322 11.5494 10.7494C10.9056 11.9048 10.2097 12.8043 9.62526 13.0277C9.50732 13.073 9.39088 13.0951 9.2782 13.0951ZM9.16935 12.2258C9.23399 12.3253 9.26952 12.3232 9.28617 12.3213C9.53263 12.2962 9.94317 11.8707 10.4119 11.1515C10.1019 11.2844 9.8241 11.4284 9.59048 11.583C9.00454 11.971 9.1289 12.1627 9.16935 12.2258ZM15.9889 10.0766C16.3197 10.3351 16.627 10.5119 16.8841 10.572C17.0848 10.6187 17.188 10.5949 17.2734 10.3346C17.1593 10.1614 16.6735 10.0783 15.9889 10.0766ZM12.9144 7.6897C12.6554 8.42503 12.3558 9.14545 12.017 9.84764C12.7424 9.66543 13.5072 9.52195 14.2375 9.43087C13.7654 8.89579 13.3091 8.29476 12.9144 7.6897ZM12.7281 4.34156C12.4532 4.34156 12.4389 4.44459 12.423 4.55343C12.3825 4.83942 12.4831 5.24615 12.6816 5.71509C12.8566 4.87945 12.8211 4.43737 12.736 4.34156H12.7281Z" fill="#E15F78"/>
</svg>
