<svg width="8" height="10" viewBox="0 0 8 10" fill="none" xmlns="http://www.w3.org/2000/svg">
<path d="M6.44708 0.174642L0.416108 4.23457C0.287505 4.32117 0.182598 4.43587 0.110193 4.56906C0.0377891 4.70225 7.0195e-07 4.85003 6.95394e-07 5C6.88839e-07 5.14997 0.0377891 5.29775 0.110193 5.43094C0.182598 5.56413 0.287505 5.67883 0.416108 5.76542L6.44708 9.82536C6.5937 9.92619 6.76704 9.98593 6.94748 9.9978C7.12792 10.0097 7.30824 9.97322 7.46804 9.89255C7.62948 9.81491 7.76487 9.69579 7.85888 9.54868C7.95289 9.40156 8.00175 9.23232 7.99995 9.06013L7.99995 0.939871C8.00176 0.767674 7.95289 0.598437 7.85888 0.451322C7.76487 0.304206 7.62948 0.185087 7.46804 0.107454C7.30824 0.0267839 7.12792 -0.00967888 6.94748 0.00219531C6.76704 0.0140695 6.5937 0.0738057 6.44708 0.174642Z" fill="#999999"/>
</svg>
