<svg width="24" height="24" viewBox="0 0 24 24" fill="none" xmlns="http://www.w3.org/2000/svg">
<g clip-path="url(#clip0_25_605)">
<path d="M11.3894 0.308601C10.7046 -0.0566432 9.89417 -0.0566432 9.20934 0.308601L2.7719 3.77842C2.30393 4.04094 2.00717 4.54316 2.00717 5.09102C2.00717 5.6503 2.29252 6.15251 2.7719 6.40362L9.22075 9.87344C9.56317 10.0561 9.93983 10.1474 10.3051 10.1474C10.6703 10.1474 11.0584 10.0561 11.3894 9.87344L17.8382 6.40362C18.3062 6.15251 18.603 5.6503 18.603 5.09102C18.603 4.54316 18.3062 4.04094 17.8382 3.77842L11.3894 0.308601Z" fill="#323232"/>
<path d="M2.16562 8.09201C1.69765 7.85232 1.17261 7.88656 0.727467 8.14908C0.293739 8.42301 0.0312195 8.89098 0.0312195 9.40461V15.0659C0.0312195 16.0475 0.579086 16.9264 1.45796 17.3715L7.45025 20.3619C7.6557 20.4647 7.88398 20.5217 8.11226 20.5217C8.37477 20.5217 8.64871 20.4418 8.8884 20.3049C9.32213 20.0309 9.58465 19.563 9.58465 19.0493V13.3881C9.57323 12.4065 9.02537 11.5276 8.15791 11.0825L2.16562 8.09201Z" fill="#323232"/>
<path d="M20.5773 12.2124C20.0294 12.0526 19.4473 11.9841 18.8652 11.9841C17.3129 11.9841 15.7949 12.5206 14.5964 13.4794C12.9528 14.7691 12.0169 16.7209 12.0169 18.8325C12.0169 19.3918 12.0853 19.951 12.2337 20.4875C12.0625 20.4647 11.8913 20.3962 11.7315 20.2935C11.2978 20.0309 11.0353 19.563 11.0353 19.0493V13.3881C11.0353 12.4065 11.5831 11.5276 12.4506 11.0824L18.4429 8.09201C18.9108 7.85232 19.4359 7.88656 19.881 8.14908C20.3148 8.42301 20.5773 8.89098 20.5773 9.40461V12.2124Z" fill="#323232"/>
<path fill-rule="evenodd" clip-rule="evenodd" d="M22.8352 15.6019C22.7895 15.5334 22.7324 15.465 22.6754 15.4079C22.664 15.3965 22.6525 15.3736 22.6411 15.3622C21.7166 14.335 20.3584 13.6958 18.8631 13.6958C17.425 13.6958 16.1124 14.2893 15.1764 15.2481C14.2748 16.1726 13.7269 17.4396 13.7269 18.8321C13.7269 19.7908 14.0008 20.7039 14.4688 21.4801C14.7199 21.9024 15.0395 22.2905 15.4047 22.6101C15.4276 22.6215 15.439 22.6329 15.4504 22.6443C15.5075 22.7014 15.5645 22.747 15.633 22.8041C15.633 22.8041 15.6368 22.8041 15.6444 22.8041C15.6558 22.8155 15.6672 22.8269 15.6787 22.8269C16.5347 23.546 17.6418 23.9683 18.8631 23.9683C20.735 23.9683 22.3672 22.9639 23.2575 21.4801C23.52 21.0349 23.7255 20.5441 23.851 20.0305C23.9537 19.6424 23.9994 19.243 23.9994 18.8321C23.9994 17.6222 23.5771 16.5036 22.858 15.6362C22.858 15.6247 22.8466 15.6133 22.8352 15.6019ZM19.7192 19.6653V20.7724C19.7192 21.2404 19.3311 21.6285 18.8631 21.6285C18.3952 21.6285 18.0071 21.2404 18.0071 20.7724V19.6653H16.9456C16.4776 19.6653 16.0896 19.2772 16.0896 18.8092C16.0896 18.3413 16.4776 17.9532 16.9456 17.9532H18.0071V16.9373C18.0071 16.4694 18.3952 16.0813 18.8631 16.0813C19.3311 16.0813 19.7192 16.4694 19.7192 16.9373V17.9532H20.7807C21.2486 17.9532 21.6367 18.3413 21.6367 18.8092C21.6367 19.2772 21.2601 19.6653 20.7807 19.6653H19.7192Z" fill="#323232"/>
</g>
<defs>
<clipPath id="clip0_25_605">
<rect width="24" height="24" fill="white"/>
</clipPath>
</defs>
</svg>
