<svg width="16" height="16" viewBox="0 0 16 16" fill="none" xmlns="http://www.w3.org/2000/svg">
<path d="M7.33331 1.29443H5.99998C2.66665 1.29443 1.33331 2.589 1.33331 5.82543V9.70913C1.33331 12.9456 2.66665 14.2401 5.99998 14.2401H9.99998C13.3333 14.2401 14.6666 12.9456 14.6666 9.70913V8.41457" stroke="#323232" stroke-width="1.5" stroke-linecap="round" stroke-linejoin="round"/>
<path d="M5.43998 7.05529C5.23998 7.24947 5.03998 7.63137 4.99998 7.9097L4.71331 9.85803C4.60665 10.5636 5.11998 11.0555 5.84665 10.9584L7.85331 10.6801C8.13331 10.6412 8.52665 10.4471 8.73331 10.2529L13.9866 5.15227C14.8933 4.27196 15.32 3.24925 13.9866 1.95468C12.6533 0.660114 11.6 1.07438 10.6933 1.95468L5.43998 7.05529Z" stroke="#323232" stroke-width="1.5" stroke-linecap="round" stroke-linejoin="round"/>
<path d="M9.94 2.68604C10.3867 4.23305 11.6333 5.44347 13.2333 5.88362" stroke="#323232" stroke-width="1.5" stroke-linecap="round" stroke-linejoin="round"/>
</svg>
