<svg width="20" height="16" viewBox="0 0 20 16" fill="none" xmlns="http://www.w3.org/2000/svg">
<path d="M10.0001 10.3866C8.35006 10.3866 7.01672 9.31995 7.01672 7.99995C7.01672 6.67995 8.35006 5.61328 10.0001 5.61328C11.6501 5.61328 12.9834 6.67995 12.9834 7.99995C12.9834 9.31995 11.6501 10.3866 10.0001 10.3866Z" stroke="#797979" stroke-width="1.5" stroke-linecap="round" stroke-linejoin="round"/>
<path d="M17.5917 9.72665C18.3417 8.78665 18.3417 7.20665 17.5917 6.26665C15.6833 3.86665 12.9417 2.47998 9.99999 2.47998C7.05833 2.47998 4.31666 3.86665 2.40833 6.26665C1.65833 7.20665 1.65833 8.78665 2.40833 9.72665C4.31666 12.1266 7.05833 13.5133 9.99999 13.5133C12.9417 13.5133 15.6833 12.1266 17.5917 9.72665Z" stroke="#797979" stroke-width="1.5" stroke-linecap="round" stroke-linejoin="round"/>
</svg>
