<svg width="12" height="12" viewBox="0 0 12 12" fill="none" xmlns="http://www.w3.org/2000/svg">
<rect opacity="0.1" width="12" height="12" fill="white"/>
<path d="M8.43652 7C8.53969 6.99938 8.64135 7.01753 8.72949 7.05273C8.8176 7.08795 8.889 7.13879 8.93555 7.19922C8.9839 7.25908 9.00608 7.32694 8.99902 7.39453C8.99191 7.46208 8.95581 7.52711 8.89551 7.58203L6.45898 9.84375C6.40706 9.89194 6.33863 9.93184 6.25879 9.95898C6.17888 9.98614 6.08998 10 6 10C5.91002 10 5.82112 9.98614 5.74121 9.95898C5.66136 9.93184 5.59294 9.89194 5.54102 9.84375L3.10449 7.58203C3.04418 7.52711 3.00809 7.46208 3.00098 7.39453C2.99392 7.32693 3.0161 7.25908 3.06445 7.19922C3.111 7.13879 3.1824 7.08795 3.27051 7.05273C3.35865 7.01753 3.46031 6.99938 3.56348 7H8.43652ZM6 2C6.08998 2 6.17888 2.01386 6.25879 2.04102C6.33863 2.06816 6.40706 2.10806 6.45898 2.15625L8.89551 4.41797C8.95581 4.47289 8.99191 4.53792 8.99902 4.60547C9.00608 4.67306 8.9839 4.74092 8.93555 4.80078C8.889 4.86121 8.8176 4.91205 8.72949 4.94727C8.64135 4.98247 8.53969 5.00062 8.43652 5H3.56348C3.46031 5.00062 3.35865 4.98247 3.27051 4.94727C3.1824 4.91205 3.111 4.86121 3.06445 4.80078C3.0161 4.74092 2.99392 4.67307 3.00098 4.60547C3.00809 4.53792 3.04418 4.47289 3.10449 4.41797L5.54102 2.15625C5.59294 2.10806 5.66136 2.06816 5.74121 2.04102C5.82112 2.01386 5.91002 2 6 2Z" fill="white"/>
</svg>
