<svg width="22" height="24" viewBox="0 0 22 24" fill="none" xmlns="http://www.w3.org/2000/svg">
<path d="M2.87096 15.484H2.09672C1.02779 15.484 0.161255 14.6174 0.161255 13.5485C0.161255 12.9071 0.681192 12.3872 1.32254 12.3872H2.87091L2.87096 15.484Z" fill="#BD4150"/>
<path d="M17.5807 0H3.25809L2.85938 0.774188V23.625H21.0645L21.8387 23.2258V4.25808L17.5807 0Z" fill="#ECEAEC"/>
<path d="M3.25807 22.0645V0C2.83053 0 2.48389 0.346594 2.48389 0.774188V23.2258C2.48389 23.6534 2.83053 24 3.25807 24H21.0645C21.4921 24 21.8387 23.6534 21.8387 23.2258H4.41936C3.77796 23.2258 3.25807 22.7059 3.25807 22.0645ZM21.8387 4.19161C21.8387 3.9863 21.7572 3.78937 21.6119 3.64416L18.1944 0.226734C18.0492 0.08156 17.8523 1.87938e-06 17.647 0L17.5806 0V3.87098C17.5806 3.97365 17.6214 4.07211 17.694 4.1447C17.7666 4.2173 17.8651 4.25808 17.9677 4.25808H21.8387V4.19161Z" fill="#DAD8DB"/>
<path d="M13.3226 14.7097H1.32258C1.18683 14.7097 1.05647 14.6864 0.935344 14.6436L0.5625 15.2656V20.1562C0.5625 20.7976 1.08244 21.3175 1.72378 21.3175H13.3226L14.0968 20.9032V15.4839C14.0968 15.0563 13.7502 14.7097 13.3226 14.7097Z" fill="#E15F78"/>
<path d="M0.935442 14.6435C0.485442 14.4835 0.161255 14.0533 0.161255 13.5483V20.5161C0.161255 21.1574 0.681192 21.6774 1.32254 21.6774H13.3225C13.7501 21.6774 14.0967 21.3307 14.0967 20.9032H2.09672C1.45538 20.9032 0.935442 20.3832 0.935442 19.7419V14.6435Z" fill="#DB4655"/>
<path d="M11.2087 17.7776H10.4489V17.0438H11.3078C11.5217 17.0438 11.6949 16.8705 11.6949 16.6567C11.6949 16.443 11.5217 16.2696 11.3078 16.2696H10.0618C10.0109 16.2696 9.9606 16.2796 9.91363 16.2991C9.86666 16.3185 9.82398 16.347 9.78803 16.383C9.75208 16.4189 9.72357 16.4616 9.70412 16.5086C9.68467 16.5556 9.67467 16.6059 9.67468 16.6567V19.7308C9.67468 19.9446 9.84784 20.1179 10.0618 20.1179C10.2757 20.1179 10.4489 19.9446 10.4489 19.7308V18.5518H11.2087C11.4227 18.5518 11.5958 18.3785 11.5958 18.1647C11.5958 17.951 11.4227 17.7776 11.2087 17.7776ZM4.10903 16.2583H3.24676C3.19584 16.2583 3.14542 16.2684 3.0984 16.2879C3.05137 16.3074 3.00865 16.336 2.97268 16.3721C2.90045 16.4447 2.85991 16.543 2.8599 16.6454H2.85962V19.7422C2.85962 19.9559 3.03278 20.1293 3.24671 20.1293C3.46065 20.1293 3.63381 19.9559 3.63381 19.7422V18.7821C3.80748 18.7812 3.9984 18.7803 4.10898 18.7803C4.8136 18.7803 5.38707 18.2146 5.38707 17.5194C5.38712 16.824 4.81365 16.2583 4.10903 16.2583ZM4.10903 18.0061C3.9519 18.0063 3.79477 18.0068 3.63765 18.0078C3.6369 17.8292 3.63503 17.0325 3.63503 17.0325H4.10907C4.3824 17.0325 4.61298 17.2555 4.61298 17.5194C4.61298 17.7832 4.38235 18.0061 4.10903 18.0061ZM7.35512 16.3041H6.5042C6.45329 16.304 6.40288 16.3141 6.35585 16.3335C6.30882 16.353 6.26609 16.3816 6.23012 16.4176C6.19415 16.4537 6.16565 16.4964 6.14625 16.5435C6.12686 16.5906 6.11695 16.641 6.1171 16.6919L6.11935 18.1904C6.11935 18.6083 6.12315 19.6978 6.12315 19.6978C6.12335 19.7486 6.13357 19.799 6.15323 19.8459C6.17288 19.8928 6.20159 19.9354 6.23771 19.9713C6.3102 20.0432 6.40818 20.0835 6.51029 20.0835H6.51179C6.51179 20.0835 7.14273 20.0811 7.3869 20.0769C8.29604 20.0608 8.95609 19.2689 8.95609 18.1938C8.95604 17.0635 8.31264 16.3041 7.35512 16.3041ZM7.37326 19.3027C7.2625 19.3046 7.07082 19.3063 6.89621 19.3072C6.89509 18.9529 6.89359 18.4459 6.89359 18.1903L6.89209 17.0782H7.35517C8.1422 17.0782 8.1819 18.0074 8.1819 18.1937C8.18185 18.7387 7.93196 19.2929 7.37326 19.3027Z" fill="white"/>
<path d="M8.2782 13.0951C7.97956 13.0951 7.70965 12.9397 7.5199 12.6465C7.2379 12.2114 7.31201 11.7187 7.72292 11.2945C8.13724 10.8666 8.98512 10.464 10.0054 10.1353C10.3237 9.5354 10.6477 8.83322 10.9505 8.05692C11.1293 7.5982 11.2737 7.18462 11.3894 6.81473C10.8794 5.87986 10.5762 5.00948 10.6568 4.44431C10.7388 3.87084 11.1671 3.54801 11.8037 3.58317C11.9927 3.59339 12.4437 3.69206 12.5526 4.38647C12.6357 4.91742 12.4959 5.7757 12.2154 6.75103C12.7461 7.64639 13.4738 8.6054 14.1856 9.34143C15.2615 9.27586 16.1733 9.35428 16.6318 9.63098C16.9909 9.84759 17.1319 10.2008 17.009 10.5757C16.8079 11.1883 16.3222 11.4689 15.7083 11.3258C15.1915 11.2052 14.5511 10.7541 13.9017 10.1277C12.8572 10.2196 11.6279 10.4322 10.5494 10.7494C9.9056 11.9048 9.20965 12.8043 8.62526 13.0277C8.50732 13.073 8.39088 13.0951 8.2782 13.0951ZM8.16935 12.2258C8.23399 12.3253 8.26952 12.3232 8.28617 12.3213C8.53263 12.2962 8.94317 11.8707 9.41192 11.1515C9.10193 11.2844 8.8241 11.4284 8.59048 11.583C8.00454 11.971 8.1289 12.1627 8.16935 12.2258ZM14.9889 10.0766C15.3197 10.3351 15.627 10.5119 15.8841 10.572C16.0848 10.6187 16.188 10.5949 16.2734 10.3346C16.1593 10.1614 15.6735 10.0783 14.9889 10.0766ZM11.9144 7.6897C11.6554 8.42503 11.3558 9.14545 11.017 9.84764C11.7424 9.66543 12.5072 9.52195 13.2375 9.43087C12.7654 8.89579 12.3091 8.29476 11.9144 7.6897ZM11.7281 4.34156C11.4532 4.34156 11.4389 4.44459 11.423 4.55343C11.3825 4.83942 11.4831 5.24615 11.6816 5.71509C11.8566 4.87945 11.8211 4.43737 11.736 4.34156H11.7281Z" fill="#E15F78"/>
</svg>
