<svg width="24" height="24" viewBox="0 0 24 24" fill="none" xmlns="http://www.w3.org/2000/svg">
<g clip-path="url(#clip0_25_561)">
<path d="M16.4821 3.05273C19.002 3.36776 20.1002 5.06906 20.1002 7.49902V16.499C20.1002 19.1989 18.75 20.9989 15.6002 20.999H8.40005C5.2501 20.999 3.90008 19.199 3.90005 16.499V7.49902C3.90005 5.06904 4.99823 3.36773 7.51821 3.05273C7.77909 3.0169 8.01328 3.24204 8.01333 3.50293V8.9209C8.01333 9.60489 8.41849 10.2259 9.04849 10.5049C9.27333 10.6038 9.50704 10.6494 9.74087 10.6494C10.1637 10.6494 10.5868 10.4962 10.9108 10.1904L11.694 9.46973C11.874 9.30784 12.1353 9.30776 12.3063 9.46973L13.0885 10.1904C13.5925 10.6584 14.3218 10.7748 14.9518 10.5049C15.5818 10.2259 15.987 9.60489 15.987 8.9209V3.50293C15.987 3.24197 16.2211 3.01674 16.4821 3.05273ZM9.30044 16.7236C8.93144 16.7236 8.62466 17.0304 8.62466 17.3994C8.62492 17.7682 8.9316 18.0742 9.30044 18.0742H16.9499C17.3187 18.0742 17.6244 17.7682 17.6247 17.3994C17.6247 17.0304 17.3189 16.7236 16.9499 16.7236H9.30044ZM13.1247 13.124C12.7559 13.1242 12.4499 13.43 12.4499 13.7988C12.4499 14.1677 12.7558 14.4734 13.1247 14.4736H16.9499C17.3189 14.4736 17.6247 14.1678 17.6247 13.7988C17.6246 13.4299 17.3188 13.124 16.9499 13.124H13.1247ZM14.1872 3C14.4392 3 14.6374 3.1982 14.6374 3.4502V8.75977C14.6374 9.15575 14.1695 9.35373 13.8815 9.09277L12.3063 7.64355C12.1353 7.48176 11.8649 7.48167 11.694 7.64355L10.1198 9.08398C9.83178 9.35398 9.36294 9.14676 9.36294 8.75977V3.4502C9.36294 3.19825 9.56121 3.00008 9.81314 3H14.1872Z" fill="#777777"/>
</g>
<defs>
<clipPath id="clip0_25_561">
<rect width="24" height="24" fill="white"/>
</clipPath>
</defs>
</svg>
