<svg width="18" height="18" viewBox="0 0 18 18" fill="none" xmlns="http://www.w3.org/2000/svg">
<path d="M9.62793 15.3125L12.625 16.8115C12.9431 16.9622 13.0692 17.3391 12.9102 17.6572C12.8013 17.8745 12.5754 17.9998 12.3496 18C12.2576 18 12.1569 17.9744 12.0732 17.9326L9 16.4014L5.92773 17.9326C5.84401 17.9745 5.74346 18 5.65137 18C5.42553 18 5.19973 17.8746 5.09082 17.6572C4.9318 17.3392 5.05709 16.9623 5.375 16.8115L8.37207 15.3125V13.1865H3.89258C2.30215 13.1864 1.46484 12.3484 1.46484 10.7578V1.25586H0.62793C0.284681 1.25586 1.25627e-05 0.971175 0 0.62793C0 0.284674 0.284674 0 0.62793 0H17.3721C17.7153 0 18 0.284674 18 0.62793C18 0.971175 17.7153 1.25586 17.3721 1.25586H16.5352V10.7578C16.5352 12.3484 15.6978 13.1864 14.1074 13.1865H9.62793V15.3125ZM13.2529 5.24902C13.0269 4.9813 12.6331 4.94003 12.3652 5.16602L9.91211 7.20801L9.0332 5.74316C8.87413 5.47538 8.61478 5.29145 8.31348 5.24121C8.02045 5.19098 7.71056 5.27466 7.46777 5.47559L4.83105 7.67676C4.56317 7.90279 4.52108 8.29655 4.74707 8.56445C4.87263 8.71512 5.05664 8.79099 5.23242 8.79102C5.37475 8.79102 5.51756 8.7489 5.63477 8.64844L8.08789 6.60547L8.9668 8.07031C9.12587 8.33822 9.38513 8.52301 9.68652 8.57324C9.97951 8.62345 10.2895 8.53976 10.5322 8.33887L13.1689 6.13672C13.4369 5.91067 13.4706 5.51693 13.2529 5.24902Z" fill="#777777"/>
</svg>
