<svg width="24" height="24" viewBox="0 0 24 24" fill="none" xmlns="http://www.w3.org/2000/svg">
<g clip-path="url(#clip0_25_569)">
<path fill-rule="evenodd" clip-rule="evenodd" d="M18.6197 6.63179C19.1134 5.7641 18.8191 4.65804 17.955 4.16222L16.3123 3.21826C15.5622 2.77011 14.5937 3.03709 14.1474 3.79036L14.043 3.97152C13.1884 5.46852 11.7831 5.46852 10.919 3.97152L10.8146 3.79036C10.3873 3.03709 9.41879 2.77011 8.66867 3.21826L7.02599 4.16222C6.16192 4.65804 5.86757 5.77364 6.36132 6.64133C7.22539 8.12879 6.52274 9.34927 4.8041 9.34927C3.81659 9.34927 3 10.1597 3 11.1609V12.8391C3 13.8307 3.8071 14.6507 4.8041 14.6507C6.52274 14.6507 7.22539 15.8712 6.36132 17.3682C5.86757 18.2359 6.16192 19.342 7.02599 19.8378L8.66867 20.7817C9.41879 21.2299 10.3873 20.9629 10.8336 20.2096L10.938 20.0285C11.7926 18.5315 13.1979 18.5315 14.062 20.0285L14.1664 20.2096C14.6127 20.9629 15.5812 21.2299 16.3313 20.7817L17.974 19.8378C18.8381 19.342 19.1324 18.2264 18.6387 17.3682C17.7746 15.8712 18.4773 14.6507 20.1959 14.6507C21.1834 14.6507 22 13.8403 22 12.8391V11.1609C21.9905 10.1693 21.1834 9.34927 20.1864 9.34927C18.4678 9.34927 17.7651 8.12879 18.6197 6.63179ZM9.4093 12C9.4093 10.2932 10.7956 8.90112 12.4953 8.90112C14.1949 8.90112 15.5812 10.2932 15.5812 12C15.5812 13.7068 14.1949 15.0989 12.4953 15.0989C10.7956 15.0989 9.4093 13.7068 9.4093 12Z" fill="#777777"/>
</g>
<defs>
<clipPath id="clip0_25_569">
<rect width="24" height="24" fill="white"/>
</clipPath>
</defs>
</svg>
