<svg width="32" height="32" viewBox="0 0 32 32" fill="none" xmlns="http://www.w3.org/2000/svg">
<rect width="32" height="32" rx="10" fill="#3D3D3D"/>
<g clip-path="url(#clip0_25_586)">
<path d="M11.9452 17.7188C14.1932 16.2309 17.8334 16.2308 20.0653 17.7188C21.0732 18.3907 21.6247 19.3032 21.6327 20.2871C21.6326 21.279 21.0731 22.1912 20.0653 22.8711C18.9453 23.6231 17.4728 23.999 16.0009 23.999C14.529 23.999 13.0573 23.6229 11.9374 22.8711C10.9294 22.1991 10.369 21.2867 10.369 20.3027C10.3691 19.3188 10.9293 18.3987 11.9452 17.7188ZM15.9999 8C18.0958 8 19.7996 9.7039 19.7997 11.7998C19.7917 13.8556 18.1844 15.5196 16.1366 15.5918H16.08C16.032 15.5838 15.9681 15.5838 15.9042 15.5918C13.8082 15.5198 12.2001 13.8558 12.2001 11.7998C12.2001 9.704 13.9041 8.00017 15.9999 8Z" fill="#777777"/>
</g>
<defs>
<clipPath id="clip0_25_586">
<rect width="24" height="24" fill="white" transform="translate(4 4)"/>
</clipPath>
</defs>
</svg>
