<svg width="19" height="24" viewBox="0 0 19 24" fill="none" xmlns="http://www.w3.org/2000/svg">
<path d="M12.0635 4.13967V0H2.31117C1.04756 0 0 1.04133 0 2.30475V21.6952C0 22.9589 1.04756 24 2.31117 24H16.2286C17.492 24 18.5395 22.9587 18.5395 21.6952V6.79359H14.7236C13.2508 6.79359 12.0635 5.60634 12.0635 4.13962L12.0635 4.13967ZM5.18095 11.8793L8.90166 7.88573C8.99691 7.78416 9.13017 7.72702 9.27614 7.72702C9.42225 7.72702 9.54914 7.78416 9.65077 7.88573L13.3715 11.8793C13.5619 12.0825 13.5493 12.4063 13.346 12.5969C13.2508 12.6857 13.1237 12.7302 13.0032 12.7302C12.8698 12.7302 12.7302 12.673 12.6286 12.5714L9.77784 9.52383V16.7808C9.77784 17.0602 9.54933 17.2888 9.26991 17.2888C8.99048 17.2888 8.76197 17.0602 8.76197 16.7808V9.52387L5.92383 12.5715C5.73338 12.7745 5.40947 12.7874 5.20641 12.5969C5.00316 12.4063 4.99055 12.0889 5.18095 11.8793ZM15.0031 20.1269C15.0031 20.4063 14.7746 20.6348 14.4952 20.6348H4.04442C3.76505 20.6348 3.53648 20.4063 3.53648 20.1269C3.53648 19.8475 3.765 19.619 4.04442 19.619H14.5016C14.781 19.619 15.0031 19.8477 15.0031 20.1269Z" fill="#C0C0C0"/>
<path d="M14.7239 5.77754H17.8412L13.0793 0.780762V4.1395C13.0793 5.04746 13.8095 5.77754 14.7239 5.77754Z" fill="#C0C0C0"/>
</svg>
