<svg width="24" height="24" viewBox="0 0 24 24" fill="none" xmlns="http://www.w3.org/2000/svg">
<g clip-path="url(#clip0_25_531)">
<path d="M9.16819 17.0146C10.7273 16.0038 13.2687 16.0039 14.8098 17.0146C16.1707 17.8938 16.1707 19.3532 14.8098 20.2412C13.2596 21.2523 10.7184 21.2523 9.16819 20.2412C7.80741 19.362 7.80732 17.9026 9.16819 17.0146ZM11.9885 9.1543C13.7008 9.15444 15.089 10.5084 15.0891 12.1787C15.0801 13.814 13.7633 15.1416 12.0959 15.1943C12.0241 15.1856 11.9433 15.1856 11.8625 15.1943C10.2042 15.1416 8.87913 13.814 8.87913 12.1787C8.88822 10.5083 10.2671 9.1543 11.9885 9.1543ZM4.03929 10.8252C5.00365 10.1922 6.36495 9.93745 7.64476 10.0781C7.27524 10.8166 7.07737 11.6521 7.07737 12.54C7.0774 13.3928 7.26617 14.202 7.60862 14.9316C6.33785 15.0635 5.01264 14.799 4.03929 14.1748C2.61571 13.2517 2.61554 11.7483 4.03929 10.8252ZM16.135 10.0957C17.4687 9.91995 18.8832 10.166 19.9016 10.8252C21.3255 11.7395 21.326 13.2428 19.9114 14.166C18.902 14.8254 17.4867 15.0713 16.1799 14.9043C16.5222 14.1836 16.7021 13.3838 16.7112 12.54C16.7112 11.661 16.5134 10.8254 16.135 10.0957ZM7.06761 3C8.5096 3.00006 9.6721 4.13433 9.6721 5.54102C9.67203 6.91251 8.56317 8.02928 7.16624 8.07324C7.10339 8.06452 7.04062 8.06452 6.97776 8.07324C5.58083 8.02928 4.47197 6.91251 4.4719 5.54102C4.4719 4.13429 5.63458 3 7.06761 3ZM16.8811 3C18.3141 3.00006 19.4856 4.13433 19.4856 5.54102C19.4765 6.91251 18.3679 8.02928 16.9709 8.07324C16.9079 8.06447 16.8445 8.06446 16.7815 8.07324C15.3847 8.02911 14.2767 6.9124 14.2766 5.54102C14.2766 4.14309 15.439 3 16.8811 3Z" fill="#777777"/>
</g>
<defs>
<clipPath id="clip0_25_531">
<rect width="24" height="24" fill="white"/>
</clipPath>
</defs>
</svg>
